<?xml version="1.0" encoding="UTF-8"?>
<svg width="84px" height="20px" viewBox="0 0 84 20" version="1.1" xmlns="http://www.w3.org/2000/svg" xmlns:xlink="http://www.w3.org/1999/xlink">
    <!-- Generator: Sketch 51.3 (57544) - http://www.bohemiancoding.com/sketch -->
    <title>Artboard Copy</title>
    <desc>Created with Sketch.</desc>
    <defs></defs>
    <g id="Artboard-Copy" stroke="none" stroke-width="1" fill="none" fill-rule="evenodd">
        <g id="logo-supa-new" transform="translate(2.000000, 1.000000)" fill-rule="nonzero">
            <g id="Group-Copy-2" transform="translate(26.000000, 4.000000)" fill="#FFFFFF">
                <path d="M0.609829833,0.136228349 C0.468492423,0.136228349 0.346171904,0.187114583 0.243512918,0.288887051 C0.166317228,0.36529616 0.127799963,0.486051266 0.127799963,0.651630925 L0.127799963,10.233078 C0.127799963,10.5768392 0.288476587,10.7484806 0.609829833,10.7484806 L1.70910291,10.7484806 C2.03061731,10.7484806 2.19113278,10.5768392 2.19113278,10.233078 L2.19113278,7.16012379 L6.83834556,7.16012379 C7.00562971,7.16012379 7.1403596,7.11545873 7.24350205,7.02644772 C7.32053655,6.9120733 7.35905386,6.79115871 7.35905386,6.66386336 L7.35905386,5.76673427 C7.35905386,5.62667748 7.32053655,5.5059224 7.24350205,5.4039904 C7.1403596,5.30237745 7.00562971,5.25149122 6.83834556,5.25149122 L2.19113278,5.25149122 L2.19113278,2.00673611 L7.55196246,2.00673611 C7.69329989,2.00673611 7.80256644,1.9684518 7.87976217,1.89220221 C7.99531393,1.79042974 8.05317042,1.66935559 8.05317042,1.52961785 L8.05317042,0.651630925 C8.05317042,0.486051266 7.99531393,0.36529616 7.87976217,0.288887051 C7.80256644,0.187114583 7.69329989,0.136228349 7.55196246,0.136228349 L0.609829833,0.136228349" id="Fill-1"></path>
                <path d="M17.0394578,1.10960703 C16.6794261,0.791368666 16.2423599,0.549698938 15.7282592,0.384278799 C15.2011045,0.21885866 14.6417178,0.136228349 14.0504214,0.136228349 L10.2515554,0.136228349 C9.93020213,0.136228349 9.76952552,0.301488971 9.76952552,0.632488769 L9.76952552,10.2712028 C9.76952552,10.3857367 9.80804277,10.5066514 9.88507733,10.6339467 C9.98821978,10.7101963 10.110218,10.7484806 10.2515554,10.7484806 L11.3508284,10.7484806 C11.4794342,10.7484806 11.5951472,10.7101963 11.6979673,10.6339467 C11.8007875,10.5066514 11.8521976,10.3857367 11.8521976,10.2712028 L11.8521976,7.16012379 L13.6839433,7.16012379 L16.1330934,10.0804193 C16.3131092,10.3477714 16.5123032,10.5321742 16.7308363,10.6339467 C16.9235837,10.7101963 17.2191514,10.7484806 17.6178615,10.7484806 L18.4471914,10.7484806 C18.7298662,10.7484806 18.8713647,10.6277255 18.8713647,10.3857367 C18.8713647,10.2842833 18.8326863,10.1951127 18.7554906,10.1187036 L15.9980412,6.81652207 C16.3322873,6.67662479 16.6278549,6.49828371 16.8852276,6.28229635 C17.1679025,6.07859191 17.3928819,5.84298385 17.5601661,5.57611032 C17.7658064,5.29599673 17.9201978,4.99706005 18.023018,4.67898121 C18.1387309,4.34798141 18.1961039,4.00453921 18.1961039,3.64817606 C18.1961039,3.1391542 18.0936061,2.66203595 17.8878046,2.21666177 C17.694896,1.7838895 17.41206,1.41508394 17.0394578,1.10960703 M11.8521976,2.00673611 L14.2625081,2.00673611 C14.5451829,2.00673611 14.8023944,2.05746282 15.0338203,2.15939481 C15.226729,2.22288296 15.4067448,2.32481495 15.5738678,2.46487173 C15.7409909,2.63013235 15.8502574,2.80209273 15.9015063,2.97995527 C16.0044877,3.19642116 16.0558977,3.41926777 16.0558977,3.64817606 C16.0558977,3.90276675 16.0044877,4.13167504 15.9015063,4.33537949 C15.8502574,4.52632251 15.7409909,4.69796385 15.5738678,4.85062255 C15.4067448,4.97791789 15.226729,5.07315012 15.0338203,5.13711683 C14.8023944,5.21336642 14.5451829,5.25149122 14.2625081,5.25149122 L11.8521976,5.25149122 L11.8521976,2.00673611" id="Fill-2"></path>
                <path d="M28.8985853,10.7484806 L30.1520886,10.7484806 C30.2935872,10.7484806 30.4026925,10.6975944 30.4798882,10.5956624 C30.557245,10.4556056 30.5699767,10.3286293 30.5185666,10.2140954 L26.1988312,0.594044935 C26.0832794,0.288887051 25.858461,0.136228349 25.5240539,0.136228349 L24.6758682,0.136228349 C24.3670855,0.136228349 24.1421059,0.288887051 24.0007685,0.594044935 L19.6620162,10.1756515 C19.6231766,10.3160274 19.6425158,10.4556056 19.7193892,10.5956624 C19.8094777,10.6975944 19.9317982,10.7484806 20.0860284,10.7484806 L21.3203537,10.7484806 C21.6031897,10.7484806 21.8281692,10.5896007 21.9952922,10.2712028 L22.8438001,8.20991154 L27.3557996,8.20991154 L28.2236467,10.2712028 C28.3780381,10.5896007 28.6026953,10.7484806 28.8985853,10.7484806 M26.6233269,6.491903 L23.5379167,6.491903 C24.0265541,5.28323529 24.5598329,3.92174939 25.1382365,2.40744526 C25.6653913,3.92174939 26.1604751,5.28323529 26.6233269,6.491903" id="Fill-3"></path>
                <path d="M33.6808502,0.136228349 L32.7359685,0.136228349 C32.5818994,0.136228349 32.4531325,0.180733864 32.3501512,0.269904412 C32.2473311,0.359074959 32.1960821,0.479670547 32.1960821,0.632488769 L31.8489433,10.233078 C31.8360505,10.3729753 31.8810142,10.5066514 31.9838343,10.6339467 C32.0871379,10.7101963 32.2089749,10.7484806 32.3501512,10.7484806 L33.4109071,10.7484806 C33.7580459,10.7484806 33.9445081,10.5768392 33.9701326,10.233078 C34.0471671,7.53562909 34.0858455,6.1167167 34.0858455,5.97665992 C34.0858455,5.77311498 34.0666675,5.08591156 34.0283114,3.91536867 L34.1050236,3.91536867 L36.6507086,8.36257026 C36.8563489,8.70617198 37.1200068,8.87797284 37.4411989,8.87797284 L37.7113033,8.87797284 C38.0453881,8.87797284 38.3153314,8.70617198 38.5209716,8.36257026 L41.008639,3.91536867 L41.1051739,3.91536867 C41.0666566,5.00966197 41.0469951,5.69654635 41.0469951,5.97665992 C41.0729419,6.1167167 41.1370836,7.53562909 41.2399037,10.233078 C41.2399037,10.3729753 41.2787433,10.5066514 41.3557779,10.6339467 C41.4587591,10.7101963 41.5870426,10.7484806 41.7415952,10.7484806 L42.8213679,10.7484806 C43.1681844,10.7484806 43.341915,10.5768392 43.341915,10.233078 L42.9752757,0.632488769 C42.9752757,0.301488971 42.789297,0.136228349 42.4163725,0.136228349 L41.4714908,0.136228349 C41.1504599,0.136228349 40.8993724,0.301488971 40.7193566,0.632488769 L37.5567507,5.99580206 L34.4521624,0.632488769 C34.2848783,0.301488971 34.0283114,0.136228349 33.6808502,0.136228349" id="Fill-4"></path>
                <path d="M45.6946913,0.288887051 C45.6044417,0.36529616 45.559478,0.486051266 45.559478,0.651630925 L45.559478,10.233078 C45.559478,10.5768392 45.7267622,10.7484806 46.060686,10.7484806 L52.9836406,10.7484806 C53.1251391,10.7484806 53.2405297,10.7101963 53.3307794,10.6339467 C53.4466535,10.5066514 53.5043489,10.3729753 53.5043489,10.233078 L53.5043489,9.35541013 C53.5043489,9.21503429 53.4466535,9.10704063 53.3307794,9.03063155 C53.2405297,8.9031767 53.1251391,8.83968849 52.9836406,8.83968849 L47.6419889,8.83968849 L47.6419889,6.24401206 L52.2893628,6.24401206 C52.4564858,6.24401206 52.5850916,6.20572771 52.6751801,6.12931863 C52.7649463,6.02754614 52.8097488,5.90679105 52.8097488,5.76673427 L52.8097488,4.88890686 C52.8097488,4.72348672 52.7649463,4.58981066 52.6751801,4.48803819 C52.5850916,4.41162908 52.4564858,4.37350429 52.2893628,4.37350429 L47.6419889,4.37350429 L47.6419889,2.00673611 L52.9836406,2.00673611 C53.1251391,2.00673611 53.2405297,1.9684518 53.3307794,1.89220221 C53.4466535,1.79042974 53.5043489,1.66935559 53.5043489,1.52961785 L53.5043489,0.651630925 C53.5043489,0.486051266 53.4466535,0.36529616 53.3307794,0.288887051 C53.2405297,0.187114583 53.1251391,0.136228349 52.9836406,0.136228349 L46.060686,0.136228349 C45.9195097,0.136228349 45.7973503,0.187114583 45.6946913,0.288887051" id="Fill-5"></path>
            </g>
            <g id="Nutanix-Frame" transform="translate(1.000000, 1.000000)" fill="#37414B" stroke="#37414B">
                <polyline id="Fill-4" points="13.9992911 11.2984906 7.79420734 8 7.28 8.27243914 7.28 8.68449269 13.5172217 12 14 11.7457807 13.9992911 11.2984906"></polyline>
                <polyline id="Fill-5" points="6.30886665 0.251987989 6.30886665 7.17377451 6.87749658 7.42857143 7.42886665 7.18238251 7.42886665 0.243515897 6.87666907 0 6.30886665 0.251987989"></polyline>
                <polyline id="Fill-6" points="6.2022534 8 0 11.2680802 0.000761322117 11.7767236 0.429718752 12 6.72 8.68549177 6.72 8.27370617 6.2022534 8"></polyline>
            </g>
            <path d="M8.42786899,16.879901 L8.42786899,9.29045459 L15.0991482,5.44315193 L15.1096275,13.049807 L8.42786899,16.879901 Z M0.891030376,5.43664053 L7.53745032,9.28250138 L7.53745032,16.8489719 L0.901509759,13.0689226 L0.891030376,5.43664053 Z M7.98886272,0.881270445 L14.6419087,4.67099382 L7.98952065,8.50736667 L1.36838275,4.67615641 L7.98886272,0.881270445 Z M15.9888619,4.92982166 C15.988392,4.61504235 15.8183252,4.32435519 15.5426188,4.16729111 L8.43299123,0.117484118 C8.29549042,0.0391613746 8.14215308,0 7.98886272,0 C7.8347265,0 7.68063727,0.0395799596 7.54261955,0.118693377 L0.444129296,4.18756944 C0.168892743,4.34537768 -0.000422144283,4.63652994 7.90491589e-07,4.95135576 L0.0111380729,13.0701319 C0.0115610076,13.3849577 0.181674772,13.6756448 0.457381252,13.8326624 L7.56700877,17.8825624 C7.70446259,17.9608386 7.85779994,18 8.01113728,18 C8.1652735,18 8.31936273,17.96042 8.45738045,17.8813066 L15.5558237,13.812384 C15.8311073,13.6546223 16.0004221,13.3634701 15.9999992,13.0486443 L15.9888619,4.92982166 Z" id="Fill-1" stroke="#9AA5B5" fill="#9AA5B5"></path>
        </g>
    </g>
</svg>