<svg xmlns="http://www.w3.org/2000/svg" width="182" height="214" viewBox="0 0 182 214"><defs><style>.cls-1,.cls-12,.cls-4{fill:#fff;}.cls-1,.cls-2{stroke:#d5dae0;}.cls-1,.cls-10,.cls-12,.cls-13,.cls-14,.cls-2,.cls-3,.cls-4,.cls-5,.cls-6,.cls-7,.cls-8,.cls-9{stroke-linecap:round;stroke-linejoin:round;stroke-width:2px;}.cls-10,.cls-11,.cls-2,.cls-6,.cls-7,.cls-8,.cls-9{fill:none;}.cls-3{fill:#f2f4f6;}.cls-3,.cls-4,.cls-5,.cls-6{stroke:#627386;}.cls-5{fill:#d5dae0;}.cls-7{stroke:#b8bfca;}.cls-10,.cls-12,.cls-13,.cls-14,.cls-8,.cls-9{stroke:#1b6dc6;}.cls-9{stroke-dasharray:0 5.64;}.cls-10{stroke-dasharray:0 5.58;}.cls-13{fill:#e9f6fe;}.cls-14{fill:#bde4fd;}</style></defs><title>Asset 1</title><g id="Layer_2" data-name="Layer 2"><g id="Layer_1-2" data-name="Layer 1"><polygon class="cls-1" points="1 169.97 75.54 213 181 152.11 106.46 115.08 1 169.97"/><line class="cls-2" x1="170.57" y1="148.13" x2="170.57" y2="158.13"/><polygon class="cls-3" points="75.54 213 75.54 203 181 142.11 181 152.11 75.54 213"/><polygon class="cls-4" points="75.54 213 75.54 203 1 159.97 1 169.97 75.54 213"/><polygon class="cls-5" points="11.43 175.99 1 169.97 1 159.97 11.43 165.99 11.43 175.99"/><polygon class="cls-6" points="75.54 213 75.54 203 1 159.97 1 169.97 75.54 213"/><polygon class="cls-6" points="75.54 213 75.54 203 181 142.11 181 152.11 75.54 213"/><polygon class="cls-1" points="1 159.97 75.54 203 181 142.11 106.46 99.08 1 159.97"/><polygon class="cls-3" points="116.89 105.1 11.43 165.99 1 159.97 106.46 99.08 116.89 105.1"/><polygon class="cls-6" points="1 159.97 75.54 203 181 142.11 106.46 99.08 1 159.97"/><polygon class="cls-7" points="69.36 153.51 40.57 170.13 32.07 165.23 60.86 148.61 69.36 153.51"/><polygon class="cls-7" points="87.07 163.74 58.28 180.36 49.79 175.46 78.57 158.84 87.07 163.74"/><polygon class="cls-7" points="120.56 123.95 91.78 140.57 83.28 135.66 112.06 119.04 120.56 123.95"/><polygon class="cls-7" points="138.28 134.18 109.49 150.8 100.99 145.89 129.78 129.27 138.28 134.18"/><line class="cls-7" x1="151.47" y1="142.11" x2="122.96" y2="158.57"/><polygon class="cls-7" points="104.79 173.97 76 190.59 67.5 185.68 96.29 169.06 104.79 173.97"/><line class="cls-8" x1="1" y1="126.77" x2="1" y2="126.77"/><line class="cls-9" x1="1" y1="121.13" x2="1" y2="90.12"/><line class="cls-8" x1="1" y1="87.3" x2="1" y2="87.3"/><line class="cls-8" x1="106.89" y1="56.19" x2="106.89" y2="56.19"/><line class="cls-10" x1="106.89" y1="50.61" x2="106.89" y2="25.5"/><line class="cls-8" x1="106.89" y1="22.71" x2="106.89" y2="22.71"/><rect class="cls-11" x="0.71" width="180" height="180"/><polygon class="cls-12" points="11.43 136.14 1 130.12 1 120.12 11.43 126.14 11.43 136.14"/><polygon class="cls-13" points="116.89 65.1 11.43 125.99 1 119.97 106.46 59.08 116.89 65.1"/><polygon class="cls-14" points="11.43 136 11.43 126 116.89 65.11 116.89 75.11 11.43 136"/></g></g></svg>