<?xml version="1.0" encoding="UTF-8"?>
<svg width="161px" height="20px" viewBox="0 0 161 20" version="1.1" xmlns="http://www.w3.org/2000/svg" xmlns:xlink="http://www.w3.org/1999/xlink">
    <!-- Generator: Sketch 52.4 (67378) - http://www.bohemiancoding.com/sketch -->
    <title>Nutanix_Gray</title>
    <desc>Created with Sketch.</desc>
    <defs>
        <polygon id="path-1" points="0 0.370204082 118.113878 0.370204082 118.113878 19.9755102 0 19.9755102"></polygon>
    </defs>
    <g id="Page-1" stroke="none" stroke-width="1" fill="none" fill-rule="evenodd">
        <g id="Nutanix_Gray">
            <path d="M124.171837,0.499591837 L120.148571,0.499591837 C119.903673,0.499591837 119.705306,0.69755102 119.705306,0.94244898 L119.705306,19.4167347 C119.705306,19.6608163 119.903673,19.86 120.148571,19.86 L124.171837,19.86 C124.416327,19.86 124.615918,19.6608163 124.615918,19.4167347 L124.615918,0.94244898 C124.615918,0.69755102 124.416327,0.499591837 124.171837,0.499591837" id="Fill-1" fill="#22272E"></path>
            <path d="M155.777143,17.2089796 L155.015102,17.2089796 C154.871429,17.2089796 154.759184,17.0922449 154.759184,16.9530612 C154.759184,16.8138776 154.871429,16.6971429 155.015102,16.6971429 L157.100816,16.6971429 C157.239592,16.6971429 157.352245,16.8138776 157.352245,16.9530612 C157.352245,17.0922449 157.239592,17.2089796 157.100816,17.2089796 L156.333878,17.2089796 L156.333878,19.5857143 C156.333878,19.7383673 156.208163,19.86 156.055918,19.86 C155.903265,19.86 155.777143,19.7383673 155.777143,19.5857143 L155.777143,17.2089796" id="Fill-2" fill="#22272E"></path>
            <path d="M157.912653,16.957551 C157.912653,16.804898 158.033469,16.6791837 158.190612,16.6791837 L158.24898,16.6791837 C158.369796,16.6791837 158.450612,16.742449 158.50449,16.8273469 L159.455102,18.3167347 L160.41102,16.8228571 C160.46898,16.7285714 160.549796,16.6791837 160.662041,16.6791837 L160.720408,16.6791837 C160.877143,16.6791837 160.998367,16.804898 160.998367,16.957551 L160.998367,19.5857143 C160.998367,19.7383673 160.877143,19.86 160.720408,19.86 C160.572245,19.86 160.446939,19.7342857 160.446939,19.5857143 L160.446939,17.7020408 L159.679592,18.8546939 C159.621224,18.9444898 159.549388,18.9987755 159.446122,18.9987755 C159.347755,18.9987755 159.27551,18.9444898 159.217551,18.8546939 L158.455102,17.7110204 L158.455102,19.5906122 C158.455102,19.7432653 158.333878,19.86 158.181633,19.86 C158.02898,19.86 157.912653,19.7432653 157.912653,19.5906122 L157.912653,16.957551" id="Fill-3" fill="#22272E"></path>
            <path d="M47.1869388,0.500408163 L43.7669388,0.500408163 C43.355102,0.500408163 43.0208163,0.834693878 43.0208163,1.24653061 C43.0208163,1.24653061 43.0208163,13.0114286 43.0208163,13.8004082 C43.0208163,15.124898 41.1726531,15.5502041 38.9057143,15.5502041 C36.6787755,15.5502041 36.3636735,15.5502041 36.3636735,15.5502041 C36.3636735,15.5502041 36.0485714,15.5502041 33.8220408,15.5502041 C31.5546939,15.5502041 29.7065306,15.124898 29.7065306,13.8004082 C29.7065306,13.0114286 29.7065306,1.24653061 29.7065306,1.24653061 C29.7065306,0.834693878 29.3726531,0.500408163 28.9604082,0.500408163 L25.5404082,0.500408163 C25.1281633,0.500408163 24.7942857,0.834693878 24.7942857,1.24653061 C24.7942857,1.24653061 24.7959184,11.8734694 24.7959184,14.0906122 C24.7959184,16.3073469 25.7604082,17.7081633 27.5963265,18.8089796 C29.4318367,19.9097959 33.7089796,19.8604082 34.977551,19.8604082 C36.2461224,19.8604082 36.3636735,19.8604082 36.3636735,19.8604082 C36.3636735,19.8604082 36.4816327,19.8604082 37.7497959,19.8604082 C39.0183673,19.8604082 43.2955102,19.9097959 45.1314286,18.8089796 C46.9669388,17.7081633 47.9318367,16.3073469 47.9318367,14.0906122 C47.9318367,11.8734694 47.9330612,1.24653061 47.9330612,1.24653061 C47.9330612,0.834693878 47.5991837,0.500408163 47.1869388,0.500408163" id="Fill-4" fill="#22272E"></path>
            <path d="M147.538367,0.630612245 C147.619592,0.550204082 147.731837,0.500408163 147.85551,0.500408163 L153.461633,0.500408163 C153.711837,0.500408163 153.914286,0.703673469 153.914286,0.953469388 C153.914286,1.10040816 153.84449,1.23102041 153.735918,1.31387755 L145.506122,8.47836735 C145.424082,8.56040816 145.311429,8.61061224 145.186122,8.61061224 C145.053061,8.61061224 144.933878,8.55387755 144.85102,8.46285714 L142.047755,6.02285714 C141.974694,5.94244898 141.930204,5.8355102 141.930204,5.71836735 C141.930204,5.57959184 141.992653,5.45510204 142.091837,5.37142857 L147.538367,0.630612245" id="Fill-5" fill="#22272E"></path>
            <path d="M147.538367,19.7297959 C147.619592,19.8102041 147.731837,19.86 147.85551,19.86 L153.461633,19.86 C153.711837,19.86 153.914286,19.6567347 153.914286,19.4065306 C153.914286,19.26 153.84449,19.1293878 153.735918,19.0465306 L145.506122,11.8816327 C145.424082,11.8 145.311429,11.7497959 145.186122,11.7497959 C145.053061,11.7497959 144.933878,11.8069388 144.85102,11.8979592 L142.047755,14.3379592 C141.974694,14.4179592 141.930204,14.524898 141.930204,14.6420408 C141.930204,14.7812245 141.992653,14.9057143 142.091837,14.9889796 L147.538367,19.7297959" id="Fill-6" fill="#22272E"></path>
            <path d="M132.573061,19.7408163 C132.492245,19.8146939 132.384898,19.86 132.266939,19.86 L126.653878,19.86 C126.403673,19.86 126.200816,19.6567347 126.200816,19.4065306 C126.200816,19.2816327 126.251429,19.1685714 126.333469,19.0869388 L136.169796,10.5265306 C136.268571,10.4436735 136.331429,10.3187755 136.331429,10.18 C136.331429,10.0481633 136.275102,9.93020408 136.185714,9.8477551 L126.361224,1.29918367 C126.263265,1.21632653 126.200816,1.0922449 126.200816,0.953469388 C126.200816,0.703673469 126.403673,0.500408163 126.653878,0.500408163 L132.266939,0.500408163 C132.385306,0.500408163 132.493061,0.545714286 132.573878,0.620408163 L143.163265,9.83795918 C143.259184,9.92081633 143.32,10.0432653 143.32,10.18 C143.32,10.3167347 143.258776,10.44 143.162449,10.5232653 L132.573061,19.7408163" id="Fill-7" fill="#22272E"></path>
            <g id="Group-12">
                <mask id="mask-2" fill="white">
                    <use xlink:href="#path-1"></use>
                </mask>
                <g id="Clip-9"></g>
                <path d="M62.5881633,5.26285714 C62.5881633,5.01265306 62.7906122,4.81020408 63.0408163,4.81020408 L70.0036735,4.81020408 C70.4155102,4.81020408 70.7497959,4.47632653 70.7497959,4.06408163 L70.7497959,1.24653061 C70.7497959,0.834693878 70.4155102,0.500408163 70.0036735,0.500408163 L50.2616327,0.500408163 C49.8493878,0.500408163 49.5155102,0.834693878 49.5155102,1.24653061 L49.5155102,4.06408163 C49.5155102,4.47632653 49.8493878,4.81020408 50.2616327,4.81020408 L57.2244898,4.81020408 C57.4746939,4.81020408 57.6771429,5.01265306 57.6771429,5.26285714 L57.6771429,19.1138776 C57.6771429,19.5261224 58.0114286,19.86 58.4236735,19.86 L61.8306122,19.86 C62.2428571,19.86 62.5767347,19.5261224 62.5767347,19.1138776 L62.5881633,5.26285714" id="Fill-8" fill="#22272E" mask="url(#mask-2)"></path>
                <path d="M17.7644898,12.5126531 C17.8261224,12.5636735 17.8995918,12.6057143 17.9861224,12.6057143 C18.1587755,12.6057143 18.2991837,12.4661224 18.2991837,12.2930612 L18.2991837,1.24530612 C18.2991837,0.833061224 18.6334694,0.499183673 19.0453061,0.499183673 L22.4636735,0.499183673 C22.8759184,0.499183673 23.2097959,0.833061224 23.2097959,1.24530612 C23.2097959,1.24530612 23.2097959,15.615102 23.2097959,17.2489796 C23.2097959,18.882449 22.5722449,19.5959184 21.9477551,19.8697959 C21.3236735,20.1436735 19.4297959,20.0363265 18.2991837,19.0518367 C17.1685714,18.0677551 6.0522449,8.39061224 6.0522449,8.39061224 C6.0522449,8.39061224 5.39714286,7.81673469 5.35061224,7.78081633 C5.3044898,7.7444898 5.24612245,7.72244898 5.18285714,7.72244898 C5.0322449,7.72244898 4.91061224,7.8444898 4.91061224,7.99510204 L4.91061224,19.1138776 C4.91061224,19.5257143 4.57632653,19.86 4.1644898,19.86 L0.746122449,19.86 C0.333877551,19.86 0,19.5257143 0,19.1138776 C0,19.1138776 0,4.75510204 0,3.12163265 C0,1.48816327 0.63755102,0.774693878 1.26204082,0.500408163 C1.88612245,0.226530612 3.78,0.333469388 4.91061224,1.31795918 C6.04122449,2.30244898 17.157551,11.9795918 17.157551,11.9795918 C17.157551,11.9795918 17.7253061,12.4804082 17.7644898,12.5126531" id="Fill-10" fill="#22272E" mask="url(#mask-2)"></path>
                <path d="M112.668571,12.5126531 C112.730204,12.5636735 112.803673,12.6057143 112.890204,12.6057143 C113.062857,12.6057143 113.203265,12.4661224 113.203265,12.2930612 L113.203265,1.24530612 C113.203265,0.833061224 113.537143,0.499183673 113.949388,0.499183673 L117.367755,0.499183673 C117.779592,0.499183673 118.113878,0.833061224 118.113878,1.24530612 C118.113878,1.24530612 118.113878,15.615102 118.113878,17.2489796 C118.113878,18.882449 117.476327,19.5959184 116.852245,19.8697959 C116.227755,20.1436735 114.333878,20.0363265 113.203265,19.0518367 C112.072245,18.0677551 100.956327,8.39061224 100.956327,8.39061224 C100.956327,8.39061224 100.300816,7.81673469 100.254694,7.78081633 C100.208571,7.7444898 100.150612,7.72244898 100.086531,7.72244898 C99.9363265,7.72244898 99.8142857,7.8444898 99.8142857,7.99510204 L99.8142857,19.1138776 C99.8142857,19.5257143 99.4804082,19.86 99.0681633,19.86 L95.6502041,19.86 C95.237551,19.86 94.9040816,19.5257143 94.9040816,19.1138776 C94.9040816,19.1138776 94.9040816,4.75510204 94.9040816,3.12163265 C94.9040816,1.48816327 95.5416327,0.774693878 96.1657143,0.500408163 C96.7902041,0.226530612 98.6840816,0.333469388 99.8142857,1.31795918 C100.944898,2.30244898 112.061224,11.9795918 112.061224,11.9795918 C112.061224,11.9795918 112.62898,12.4804082 112.668571,12.5126531" id="Fill-11" fill="#22272E" mask="url(#mask-2)"></path>
            </g>
            <path d="M119.705306,1.24653061 C119.705306,0.834693878 120.039592,0.500408163 120.451429,0.500408163 L123.869796,0.500408163 C124.282041,0.500408163 124.615918,0.834693878 124.615918,1.24653061 L124.615918,19.1138776 C124.615918,19.5257143 124.282041,19.86 123.869796,19.86 L120.451429,19.86 C120.039592,19.86 119.705306,19.5257143 119.705306,19.1138776 L119.705306,1.24653061" id="Fill-13" fill="#22272E"></path>
            <path d="M81.24,10.5440816 L76.2387755,10.5440816 C76.0881633,10.5440816 75.9665306,10.422449 75.9665306,10.2718367 C75.9665306,10.1971429 75.9967347,10.1289796 76.0461224,10.08 L78.5061224,6.52653061 C78.52,6.50408163 78.542449,6.48979592 78.5616327,6.4722449 C78.5771429,6.45836735 78.5885714,6.44081633 78.6065306,6.43061224 C78.6395918,6.4122449 78.6783673,6.4044898 78.717551,6.40122449 C78.7253061,6.40040816 78.7314286,6.3955102 78.7395918,6.3955102 C78.7473469,6.3955102 78.7534694,6.40040816 78.7612245,6.40122449 C78.8008163,6.4044898 78.8395918,6.4122449 78.8722449,6.43061224 C78.8902041,6.44081633 78.9020408,6.45836735 78.9171429,6.4722449 C78.9363265,6.48979592 78.9591837,6.50408163 78.9726531,6.52653061 L81.4330612,10.08 C81.4820408,10.1289796 81.5122449,10.1971429 81.5122449,10.2718367 C81.5122449,10.422449 81.3906122,10.5440816 81.24,10.5440816 Z M93.2065306,19.115102 L81.1142857,1.64938776 L81.1146939,1.64857143 C80.595102,0.893877551 79.7253061,0.399591837 78.7395918,0.399591837 L78.7391837,0.399591837 C77.7538776,0.399591837 76.8836735,0.893877551 76.3640816,1.64857143 L76.3644898,1.64938776 L64.2722449,19.115102 C64.2057143,19.1938776 64.1653061,19.2959184 64.1653061,19.4069388 C64.1653061,19.6571429 64.3681633,19.8604082 64.6179592,19.8604082 L69.04,19.8604082 C69.2081633,19.8604082 69.3546939,19.7685714 69.4326531,19.6326531 L72.5620408,15.1106122 C72.6346939,14.9587755 72.7902041,14.8538776 72.9706122,14.8538776 L84.5081633,14.8538776 C84.6885714,14.8538776 84.8440816,14.9587755 84.9167347,15.1106122 L88.0461224,19.6326531 C88.1240816,19.7685714 88.2706122,19.8604082 88.4391837,19.8604082 L92.8608163,19.8604082 C93.1106122,19.8604082 93.3134694,19.6571429 93.3134694,19.4069388 C93.3134694,19.2959184 93.2730612,19.1938776 93.2065306,19.115102 Z" id="Fill-14" fill="#22272E"></path>
        </g>
    </g>
</svg>