<svg xmlns="http://www.w3.org/2000/svg" width="162" height="153.81" viewBox="0 0 162 153.81"><defs><style>.cls-1{fill:#d5dae0;}.cls-1,.cls-3,.cls-8{stroke:#627386;}.cls-1,.cls-3,.cls-4,.cls-6,.cls-7,.cls-8{stroke-linecap:round;stroke-linejoin:round;stroke-width:2px;}.cls-2{fill:#f2f4f6;}.cls-3,.cls-6{fill:none;}.cls-4{fill:#d3edfd;}.cls-4,.cls-6,.cls-7{stroke:#1b6dc6;}.cls-5{fill:#91d2fb;}.cls-7{fill:#e9f6fe;}.cls-8{fill:#fff;}</style></defs><title>Asset 2</title><g id="Layer_2" data-name="Layer 2"><g id="Layer_1-2" data-name="Layer 1"><path class="cls-1" d="M146.47,90.62,122.63,76.85a2,2,0,0,0-.33-.56c-.72-.65-13.89-1-13.89-1v16h0c0,.6.67,1.18,1.81,1.35a13.32,13.32,0,0,1,4.63,1.55,5.78,5.78,0,0,1,2.88,3.24L81,90.62v16l10.69-.69H84.77v16h0A4.68,4.68,0,0,0,87,125.65c3.92,2.84,11.12,3,15.45.52a6.37,6.37,0,0,0,2.67-2.67c.48-1,2.67-1.41,4-.66l12.56,7.25,38.41-22.18a1.57,1.57,0,0,0,.93-1.29v-16Z"/><path class="cls-2" d="M130.14,81.19l-7.51-4.34a2,2,0,0,0-.33-.56c-.72-.65-13.89-1-13.89-1v16h0c0,.6.67,1.18,1.81,1.35,1.7.26,3.3-6.08,4.63-5.31,1.58.91,2.54,8.91,2.88,10.1L96.61,90.62v5.45h33.53Z"/><path class="cls-3" d="M146.47,90.62,122.63,76.85a2,2,0,0,0-.33-.56c-.72-.65-13.89-1-13.89-1v16h0c0,.6.67,1.18,1.81,1.35a13.32,13.32,0,0,1,4.63,1.55,5.78,5.78,0,0,1,2.88,3.24L81,90.62v16l10.69-.69H84.77v16h0A4.68,4.68,0,0,0,87,125.65c3.92,2.84,11.12,3,15.45.52a6.37,6.37,0,0,0,2.67-2.67c.48-1,2.67-1.41,4-.66l12.56,7.25,38.41-22.18a1.57,1.57,0,0,0,.93-1.29v-16Z"/><path class="cls-4" d="M105.82,16.86l-22.58-13a5,5,0,0,0-4.48,0l-22.58,13L40.34,23.72h0v16L52.89,47a3.34,3.34,0,0,0,1.72.4,2.52,2.52,0,0,0,2.27-1,6.26,6.26,0,0,1,2.67-2.67q.42-.24.87-.45l.21-.08c.24-.11.47-.21.72-.3l.21-.07c.26-.08.51-.17.78-.24l.17,0c.28-.07.57-.15.87-.21l.11,0c.32-.06.64-.12,1-.16h0l1-.11h0a18.09,18.09,0,0,1,2.21,0v3.9h0V55a1.18,1.18,0,0,0,.7,1L81,63.19h0L93.54,56a3.42,3.42,0,0,1,1.7-.41,2.46,2.46,0,0,1,2.27,1,7,7,0,0,0,3.73,3.25A16.8,16.8,0,0,0,114,59.73c2.62-1.21,3.92-2.95,3.92-4.69h0V41.89l3.76-2.17v-16h0Z"/><path class="cls-5" d="M94.9,55.57V24.09H81v39.1L93.54,56A3.2,3.2,0,0,1,94.9,55.57Z"/><path class="cls-5" d="M54.9,23.72V47.34a2.39,2.39,0,0,0,2-1,6.26,6.26,0,0,1,2.67-2.67A16.43,16.43,0,0,1,71.43,42.5l7.33-3.57V10.68l-22.58,13Z"/><path class="cls-5" d="M117.89,39h-3.56V59.54c2.36-1.2,3.55-2.85,3.55-4.5h0Z"/><polygon class="cls-5" points="114.33 43.95 121.66 39.72 121.66 23.72 114.33 23.72 114.33 43.95"/><path class="cls-6" d="M105.82,16.86l-22.58-13a5,5,0,0,0-4.48,0l-22.58,13L40.34,23.72h0v16L52.89,47a3.34,3.34,0,0,0,1.72.4,2.52,2.52,0,0,0,2.27-1,6.26,6.26,0,0,1,2.67-2.67q.42-.24.87-.45l.21-.08c.24-.11.47-.21.72-.3l.21-.07c.26-.08.51-.17.78-.24l.17,0c.28-.07.57-.15.87-.21l.11,0c.32-.06.64-.12,1-.16h0l1-.11h0a18.09,18.09,0,0,1,2.21,0v3.9h0V55a1.18,1.18,0,0,0,.7,1L81,63.19h0L93.54,56a3.42,3.42,0,0,1,1.7-.41,2.46,2.46,0,0,1,2.27,1,7,7,0,0,0,3.73,3.25A16.8,16.8,0,0,0,114,59.73c2.62-1.21,3.92-2.95,3.92-4.69h0V41.89l3.76-2.17v-16h0Z"/><path class="cls-7" d="M75.11,35.5a12.62,12.62,0,0,1-5.64,2.16c-1.75.26-2.29,1.55-1,2.29L81,47.19,93.54,40c1.28-.74,3.52-.43,4,.59a7,7,0,0,0,3.73,3.25A16.77,16.77,0,0,0,114,43.73c4.92-2.27,5.22-6.43.9-8.92a13.32,13.32,0,0,0-4.63-1.55c-1.79-.27-2.44-1.54-1.13-2.3l12.55-7.24L83.24,1.54a4.92,4.92,0,0,0-4.48,0L40.34,23.72,52.89,31c1.32.76,3.51.39,4-.65a6.26,6.26,0,0,1,2.67-2.67c4.33-2.5,11.53-2.32,15.45.52C77.93,30.28,78,33.36,75.11,35.5Z"/><path class="cls-1" d="M73.57,97.48l-5.11,1.9c-1.28-.74-.74-2,1-2.29a12.58,12.58,0,0,0,5.63-2.16,4.61,4.61,0,0,0,2.12-3.63h0v-16l-16.9,1L58.7,80.78a5.69,5.69,0,0,0-1.82,2.1c-.48,1-2.67,1.41-4,.66L40.35,76.29,10.66,93.43,1,90.62v16a1.56,1.56,0,0,0,.93,1.29l38.42,22.18,12.55-7.24a1.16,1.16,0,0,0,.68-1h0v-9.14l-6.8-2a10.47,10.47,0,0,1,1.25-.69A16.73,16.73,0,0,1,60.76,110a7,7,0,0,1,3.73,3.25c.45,1,2.69,1.33,4,.59L81,106.62V97.48Z"/><path class="cls-2" d="M49.75,102.6V81.72l-9.4-5.43L10.66,93.43,1,90.62v16a1.56,1.56,0,0,0,.93,1.29l38.42,22.18,9.4-5.43V104.78l-3-.86a11.5,11.5,0,0,1,1.26-.7A15,15,0,0,1,49.75,102.6Z"/><path class="cls-3" d="M73.57,97.48l-5.11,1.9c-1.28-.74-.74-2,1-2.29a12.58,12.58,0,0,0,5.63-2.16,4.61,4.61,0,0,0,2.12-3.63h0v-16l-16.9,1L58.7,80.78a5.69,5.69,0,0,0-1.82,2.1c-.48,1-2.67,1.41-4,.66L40.35,76.29,10.66,93.43,1,90.62v16a1.56,1.56,0,0,0,.93,1.29l38.42,22.18,12.55-7.24a1.16,1.16,0,0,0,.68-1h0v-16l-6.8-2a10.49,10.49,0,0,1,1.25-.7,16.77,16.77,0,0,1,12.72-.06c1.94.87,3.18,8.88,3.73,10.11.45,1,2.69,1.33,4,.59L81,106.62v-16Z"/><path class="cls-1" d="M84.91,114.09a5.19,5.19,0,0,1,2-2.64,12.62,12.62,0,0,1,5.64-2.16c1.09-.16,1.71-.72,1.71-1.31h0V98.84l-50.13-.07v9.15h0c0,1.53,1,3.06,3,4.22a13.32,13.32,0,0,0,4.63,1.55,3.16,3.16,0,0,1,1.16.4H40.35v16l38.41,22.18a4.92,4.92,0,0,0,4.48,0l38.42-22.18v-16Z"/><path class="cls-2" d="M81,98.82l-36.89,0v9.15h0c0,1.53,1,3.06,3,4.22a13.32,13.32,0,0,0,4.63,1.55,3.16,3.16,0,0,1,1.16.4H40.35v16l38.41,22.18a4.56,4.56,0,0,0,2.24.54Z"/><path class="cls-3" d="M84.91,114.09a5.19,5.19,0,0,1,2-2.64,12.62,12.62,0,0,1,5.64-2.16c1.09-.16,1.71-.72,1.71-1.31h0V98.84l-50.13-.07v9.15h0c0,1.53,1,3.06,3,4.22a13.32,13.32,0,0,0,4.63,1.55,3.16,3.16,0,0,1,1.16.4H40.35v16l38.41,22.18a4.92,4.92,0,0,0,4.48,0l38.42-22.18v-16Z"/><path class="cls-8" d="M60.76,94a7,7,0,0,1,3.73,3.25c.45,1,2.69,1.33,4,.59L81,90.62,68.46,83.38c-1.28-.74-.74-2,1-2.29a12.58,12.58,0,0,0,5.63-2.16c2.87-2.14,2.82-5.22-.11-7.34-3.92-2.84-11.12-3-15.45-.52a6.26,6.26,0,0,0-2.67,2.67c-.48,1-2.67,1.41-4,.65L40.34,67.15,1.93,89.33a1.36,1.36,0,0,0,0,2.58l38.42,22.18,12.55-7.24c1.31-.76.66-2-1.13-2.31A13.31,13.31,0,0,1,47.14,103c-4.32-2.5-4-6.65.9-8.92A16.73,16.73,0,0,1,60.76,94Z"/><path class="cls-8" d="M86.89,102.3a12.61,12.61,0,0,1,5.64-2.15c1.75-.26,2.29-1.55,1-2.29L81,90.62,68.46,97.86c-1.28.74-3.52.42-4-.59A7,7,0,0,0,60.76,94,16.73,16.73,0,0,0,48,94.08c-4.92,2.27-5.22,6.42-.9,8.92a13.31,13.31,0,0,0,4.63,1.54c1.79.28,2.44,1.55,1.13,2.31l-12.55,7.24,38.41,22.18a4.92,4.92,0,0,0,4.48,0l38.42-22.18-12.55-7.24c-1.32-.76-3.51-.39-4,.65a6.26,6.26,0,0,1-2.67,2.67c-4.33,2.49-11.53,2.32-15.45-.52C84.07,107.53,84,104.45,86.89,102.3Z"/><path class="cls-8" d="M101.24,87.22A7,7,0,0,1,97.51,84c-.45-1-2.69-1.32-4-.58L81,90.62l12.54,7.24c1.28.74.74,2-1,2.29a12.57,12.57,0,0,0-5.63,2.15c-2.87,2.15-2.82,5.23.11,7.35,3.92,2.84,11.12,3,15.45.52a6.37,6.37,0,0,0,2.67-2.67c.48-1,2.67-1.41,4-.66l12.55,7.25,38.42-22.18a1.36,1.36,0,0,0,0-2.58L121.65,67.15,109.1,74.39c-1.31.76-.66,2,1.13,2.3a13.32,13.32,0,0,1,4.63,1.55c4.32,2.49,4,6.65-.9,8.92A16.77,16.77,0,0,1,101.24,87.22Z"/></g></g></svg>